<svg xmlns="http://www.w3.org/2000/svg" viewBox="0 0 1078.05 1078.05">
  <rect fill="transparent" stroke="#D4AF37" stroke-width="6" x="3" y="3" width="1072.05" height="1072.05" rx="60"/>
  <path fill="#FAFAFA" d="M282.19,177.56l-55.04,629.16h224.27c71.6,0,97.11-26.85,103.56-100.56l17.89-204.44c1.91-21.81-7.44-38.78-29.25-38.78h0c-21.81,0-30.61,18.91-32.52,40.71-2.7,30.82-15.21,173.81-17.9,204.62-1.91,21.81-21.13,39.48-42.94,39.48h-105.29c-21.81,0-37.94-17.68-36.03-39.48l36.48-416.96c1.91-21.81,21.13-39.48,42.94-39.48h85.02c19.21,0,36.14-15.57,37.82-34.78h0c1.91-21.81-14.22-39.48-36.03-39.48h-192.98Z"/>
  <path fill="#D4AF37" d="M539.08,201.95l-17.8,203.46c-1.56,17.84,11.67,32.28,29.52,32.2h0c17.77-.07,33.39-14.52,34.9-32.29l11.05-130.11c1.51-17.82,17.21-32.29,35.03-32.29l115.8.02c17.78,0,30.94,14.42,29.38,32.2l-17.67,201.99c-1.56,17.79-17.24,32.2-35.02,32.2h-76.68c-17.79,0-33.47,14.42-35.02,32.2l-.44,5.08c-1.56,17.79,11.6,32.2,29.39,32.2h76.68c17.79,0,30.94,14.42,29.39,32.2l-21.17,241.99c-1.56,17.79,11.6,32.2,29.39,32.2h38.34l62.6-715.5h-282.62c-17.79,0-33.47,14.42-35.02,32.2Z"/>
</svg>
